<svg width="128" height="19" viewBox="0 0 128 19" fill="none" xmlns="http://www.w3.org/2000/svg">
<path d="M5.816 0.696C6.76 0.696 7.488 0.8 8 1.008C8.512 1.2 8.952 1.408 9.32 1.632C9.512 1.744 9.664 1.832 9.776 1.896C9.904 1.944 10.024 1.968 10.136 1.968C10.296 1.968 10.408 1.88 10.472 1.704C10.552 1.528 10.616 1.264 10.664 0.912H11.216C11.2 1.216 11.176 1.584 11.144 2.016C11.128 2.432 11.112 2.984 11.096 3.672C11.096 4.36 11.096 5.264 11.096 6.384H10.544C10.48 5.552 10.288 4.744 9.968 3.96C9.648 3.176 9.192 2.536 8.6 2.04C8.024 1.528 7.312 1.272 6.464 1.272C5.696 1.272 5.064 1.488 4.568 1.92C4.072 2.352 3.824 2.952 3.824 3.72C3.824 4.36 3.984 4.912 4.304 5.376C4.624 5.824 5.088 6.264 5.696 6.696C6.32 7.128 7.072 7.648 7.952 8.256C8.72 8.752 9.408 9.248 10.016 9.744C10.624 10.24 11.112 10.8 11.48 11.424C11.848 12.048 12.032 12.792 12.032 13.656C12.032 14.712 11.752 15.584 11.192 16.272C10.648 16.96 9.928 17.48 9.032 17.832C8.136 18.168 7.152 18.336 6.08 18.336C5.088 18.336 4.296 18.24 3.704 18.048C3.112 17.856 2.616 17.656 2.216 17.448C1.864 17.224 1.592 17.112 1.4 17.112C1.24 17.112 1.12 17.2 1.04 17.376C0.976 17.552 0.92 17.816 0.872 18.168H0.32C0.352 17.784 0.368 17.336 0.368 16.824C0.384 16.312 0.392 15.648 0.392 14.832C0.408 14 0.416 12.952 0.416 11.688H0.968C1.032 12.744 1.208 13.736 1.496 14.664C1.8 15.576 2.256 16.312 2.864 16.872C3.488 17.432 4.312 17.712 5.336 17.712C5.896 17.712 6.392 17.616 6.824 17.424C7.272 17.216 7.632 16.912 7.904 16.512C8.176 16.112 8.312 15.616 8.312 15.024C8.312 14.352 8.152 13.768 7.832 13.272C7.528 12.776 7.104 12.312 6.56 11.88C6.032 11.448 5.416 11.008 4.712 10.56C3.96 10.064 3.256 9.568 2.6 9.072C1.944 8.576 1.416 8.008 1.016 7.368C0.632 6.728 0.44 5.968 0.44 5.088C0.44 4.08 0.688 3.256 1.184 2.616C1.696 1.96 2.36 1.48 3.176 1.176C4.008 0.855999 4.888 0.696 5.816 0.696ZM29.5996 1.008V1.488C29.0876 1.552 28.6956 1.688 28.4236 1.896C28.1676 2.088 27.9996 2.4 27.9196 2.832C27.8396 3.264 27.7996 3.872 27.7996 4.656V11.016C27.7996 12.056 27.7276 13.008 27.5836 13.872C27.4396 14.736 27.1836 15.48 26.8156 16.104C26.3996 16.792 25.7916 17.336 24.9916 17.736C24.1916 18.136 23.1756 18.336 21.9436 18.336C21.2076 18.336 20.4556 18.248 19.6876 18.072C18.9196 17.912 18.2316 17.6 17.6236 17.136C17.1116 16.704 16.7196 16.216 16.4476 15.672C16.1756 15.128 15.9916 14.488 15.8956 13.752C15.7996 13 15.7516 12.112 15.7516 11.088V3.552C15.7516 2.96 15.7036 2.528 15.6076 2.256C15.5276 1.968 15.3596 1.776 15.1036 1.68C14.8476 1.568 14.4636 1.504 13.9516 1.488V1.008C14.3516 1.024 14.8876 1.04 15.5596 1.056C16.2476 1.072 16.9596 1.08 17.6956 1.08C18.4316 1.08 19.1356 1.072 19.8076 1.056C20.4956 1.04 21.0636 1.024 21.5116 1.008V1.488C20.9676 1.504 20.5516 1.568 20.2636 1.68C19.9916 1.776 19.8076 1.968 19.7116 2.256C19.6156 2.528 19.5676 2.96 19.5676 3.552V12.6C19.5676 13.4 19.6156 14.112 19.7116 14.736C19.8236 15.344 19.9996 15.856 20.2396 16.272C20.4956 16.672 20.8396 16.976 21.2716 17.184C21.7036 17.392 22.2396 17.496 22.8796 17.496C23.9996 17.496 24.8716 17.232 25.4956 16.704C26.1356 16.176 26.5836 15.448 26.8396 14.52C27.1116 13.576 27.2476 12.496 27.2476 11.28V4.944C27.2476 4.064 27.1916 3.392 27.0796 2.928C26.9676 2.448 26.7436 2.104 26.4076 1.896C26.0876 1.688 25.5916 1.552 24.9196 1.488V1.008C25.2236 1.024 25.6236 1.04 26.1196 1.056C26.6156 1.072 27.0796 1.08 27.5116 1.08C27.8956 1.08 28.2716 1.072 28.6396 1.056C29.0236 1.04 29.3436 1.024 29.5996 1.008ZM38.7545 1.008V1.488C38.2425 1.504 37.8505 1.568 37.5785 1.68C37.3225 1.776 37.1545 1.968 37.0745 2.256C36.9945 2.528 36.9545 2.96 36.9545 3.552V15.456C36.9545 16.032 36.9945 16.464 37.0745 16.752C37.1705 17.04 37.3465 17.232 37.6025 17.328C37.8585 17.424 38.2425 17.488 38.7545 17.52V18C38.3225 17.968 37.7785 17.952 37.1225 17.952C36.4665 17.936 35.8025 17.928 35.1305 17.928C34.3465 17.928 33.6185 17.936 32.9465 17.952C32.2905 17.952 31.7545 17.968 31.3385 18V17.52C31.8505 17.488 32.2345 17.424 32.4905 17.328C32.7465 17.232 32.9145 17.04 32.9945 16.752C33.0905 16.464 33.1385 16.032 33.1385 15.456V3.552C33.1385 2.96 33.0905 2.528 32.9945 2.256C32.9145 1.968 32.7385 1.776 32.4665 1.68C32.2105 1.568 31.8345 1.504 31.3385 1.488V1.008C31.7545 1.024 32.2905 1.04 32.9465 1.056C33.6185 1.072 34.3465 1.08 35.1305 1.08C35.8025 1.08 36.4665 1.072 37.1225 1.056C37.7785 1.04 38.3225 1.024 38.7545 1.008ZM55.4339 1.008C55.3699 1.824 55.3219 2.608 55.2899 3.36C55.2739 4.112 55.2659 4.688 55.2659 5.088C55.2659 5.44 55.2739 5.776 55.2899 6.096C55.3059 6.416 55.3219 6.688 55.3379 6.912H54.7859C54.5299 5.568 54.2019 4.504 53.8019 3.72C53.4179 2.936 52.9539 2.384 52.4099 2.064C51.8659 1.728 51.2259 1.56 50.4899 1.56H49.9379V15.264C49.9379 15.904 50.0019 16.384 50.1299 16.704C50.2739 17.024 50.5299 17.24 50.8979 17.352C51.2659 17.448 51.8019 17.504 52.5059 17.52V18C52.0099 17.984 51.3459 17.968 50.5139 17.952C49.6979 17.936 48.8419 17.928 47.9459 17.928C47.0659 17.928 46.2339 17.936 45.4499 17.952C44.6659 17.968 44.0339 17.984 43.5539 18V17.52C44.2739 17.504 44.8179 17.448 45.1859 17.352C45.5539 17.24 45.8019 17.024 45.9299 16.704C46.0579 16.384 46.1219 15.904 46.1219 15.264V1.56H45.5939C44.8579 1.56 44.2179 1.728 43.6739 2.064C43.1299 2.384 42.6659 2.936 42.2819 3.72C41.8979 4.488 41.5619 5.552 41.2739 6.912H40.7219C40.7539 6.688 40.7699 6.416 40.7699 6.096C40.7859 5.776 40.7939 5.44 40.7939 5.088C40.7939 4.688 40.7779 4.112 40.7459 3.36C40.7299 2.608 40.6899 1.824 40.6259 1.008C41.3619 1.024 42.1619 1.04 43.0259 1.056C43.9059 1.072 44.7859 1.08 45.6659 1.08C46.5459 1.08 47.3379 1.08 48.0419 1.08C48.7619 1.08 49.5539 1.08 50.4179 1.08C51.2979 1.08 52.1779 1.072 53.0579 1.056C53.9379 1.04 54.7299 1.024 55.4339 1.008ZM65.7037 10.512V12.504H57.0397V10.512H65.7037ZM84.1023 1.008V1.488C83.5903 1.552 83.2063 1.688 82.9503 1.896C82.6943 2.088 82.5183 2.4 82.4223 2.832C82.3423 3.264 82.3023 3.872 82.3023 4.656V18.048C82.1103 18.032 81.9103 18.024 81.7023 18.024C81.5103 18.024 81.3023 18.032 81.0783 18.048L70.6623 4.848V14.064C70.6623 14.944 70.7103 15.624 70.8063 16.104C70.9023 16.568 71.1103 16.904 71.4303 17.112C71.7663 17.304 72.2863 17.44 72.9903 17.52V18C72.6863 17.968 72.2863 17.952 71.7903 17.952C71.2943 17.936 70.8303 17.928 70.3983 17.928C70.0303 17.928 69.6543 17.936 69.2703 17.952C68.8863 17.952 68.5663 17.968 68.3103 18V17.52C68.8223 17.44 69.2063 17.304 69.4623 17.112C69.7183 16.92 69.8863 16.608 69.9663 16.176C70.0623 15.728 70.1103 15.12 70.1103 14.352V3.552C70.1103 2.96 70.0623 2.528 69.9663 2.256C69.8863 1.968 69.7103 1.776 69.4383 1.68C69.1823 1.568 68.8063 1.504 68.3103 1.488V1.008C68.5663 1.024 68.8863 1.04 69.2703 1.056C69.6543 1.072 70.0303 1.08 70.3983 1.08C70.7823 1.08 71.1503 1.072 71.5023 1.056C71.8543 1.04 72.1743 1.024 72.4623 1.008L81.7503 12.456V4.944C81.7503 4.064 81.7023 3.392 81.6063 2.928C81.5103 2.448 81.2943 2.104 80.9583 1.896C80.6383 1.688 80.1263 1.552 79.4223 1.488V1.008C79.7263 1.024 80.1263 1.04 80.6223 1.056C81.1183 1.072 81.5823 1.08 82.0143 1.08C82.3983 1.08 82.7743 1.072 83.1423 1.056C83.5263 1.04 83.8463 1.024 84.1023 1.008ZM94.6346 0.671999C96.3306 0.671999 97.8106 1.016 99.0746 1.704C100.355 2.392 101.347 3.384 102.051 4.68C102.755 5.96 103.107 7.52 103.107 9.36C103.107 11.152 102.747 12.72 102.027 14.064C101.307 15.408 100.299 16.456 99.0026 17.208C97.7226 17.96 96.2586 18.336 94.6106 18.336C92.9146 18.336 91.4266 17.992 90.1466 17.304C88.8826 16.616 87.8986 15.624 87.1946 14.328C86.4906 13.032 86.1386 11.472 86.1386 9.648C86.1386 7.856 86.4986 6.288 87.2186 4.944C87.9546 3.6 88.9546 2.552 90.2186 1.8C91.4986 1.048 92.9706 0.671999 94.6346 0.671999ZM94.5386 1.104C93.6426 1.104 92.8586 1.464 92.1866 2.184C91.5306 2.904 91.0186 3.896 90.6506 5.16C90.2986 6.424 90.1226 7.888 90.1226 9.552C90.1226 11.248 90.3226 12.728 90.7226 13.992C91.1386 15.24 91.6906 16.208 92.3786 16.896C93.0826 17.568 93.8586 17.904 94.7066 17.904C95.6026 17.904 96.3786 17.544 97.0346 16.824C97.7066 16.104 98.2186 15.112 98.5706 13.848C98.9386 12.568 99.1226 11.104 99.1226 9.456C99.1226 7.744 98.9146 6.264 98.4986 5.016C98.0986 3.768 97.5466 2.808 96.8426 2.136C96.1546 1.448 95.3866 1.104 94.5386 1.104ZM127.549 1.008V1.488C127.197 1.616 126.829 1.896 126.445 2.328C126.061 2.744 125.725 3.416 125.437 4.344L121.213 18.048C121.085 18.032 120.949 18.024 120.805 18.024C120.661 18.024 120.517 18.024 120.373 18.024C120.229 18.024 120.085 18.024 119.941 18.024C119.797 18.024 119.661 18.032 119.533 18.048L114.493 2.784C114.333 2.288 114.133 1.952 113.893 1.776C113.669 1.6 113.429 1.504 113.173 1.488V1.008C113.621 1.024 114.149 1.04 114.757 1.056C115.381 1.072 115.997 1.08 116.605 1.08C117.309 1.08 117.965 1.072 118.573 1.056C119.197 1.04 119.693 1.024 120.061 1.008V1.488C119.581 1.504 119.197 1.56 118.909 1.656C118.637 1.752 118.477 1.936 118.429 2.208C118.397 2.48 118.477 2.912 118.669 3.504L122.077 13.92L121.525 14.904L124.237 6.288C124.621 5.072 124.805 4.12 124.789 3.432C124.773 2.744 124.589 2.256 124.237 1.968C123.885 1.664 123.381 1.504 122.725 1.488V1.008C123.269 1.024 123.781 1.04 124.261 1.056C124.741 1.072 125.221 1.08 125.701 1.08C126.069 1.08 126.405 1.072 126.709 1.056C127.029 1.04 127.309 1.024 127.549 1.008ZM110.413 1.008V1.488C110.093 1.536 109.869 1.656 109.741 1.848C109.613 2.024 109.557 2.264 109.573 2.568C109.605 2.856 109.677 3.168 109.789 3.504L113.461 14.16L112.813 15.024L115.885 6.048L116.221 6.696L112.453 18.048C112.325 18.032 112.189 18.024 112.045 18.024C111.901 18.024 111.757 18.024 111.613 18.024C111.469 18.024 111.325 18.024 111.181 18.024C111.037 18.024 110.901 18.032 110.773 18.048L105.397 3.024C105.189 2.432 104.941 2.032 104.653 1.824C104.381 1.616 104.125 1.504 103.885 1.488V1.008C104.365 1.024 104.933 1.04 105.589 1.056C106.245 1.072 106.869 1.08 107.461 1.08C108.101 1.08 108.669 1.072 109.165 1.056C109.677 1.04 110.093 1.024 110.413 1.008Z" fill="#1B2430"/>
</svg>
