<svg width="48" height="48" viewBox="0 0 48 48" fill="none" xmlns="http://www.w3.org/2000/svg">
<g clip-path="url(#clip0_1_199)">
<g clip-path="url(#clip1_1_199)">
<rect opacity="0.1" width="48" height="48" rx="24" fill="#6D5DD3"/>
</g>
<g clip-path="url(#clip2_1_199)">
<path d="M17 21.7429C17 21.071 17.1478 20.4039 17.445 19.7433C17.7422 19.0826 18.1671 18.4683 18.7212 17.9036C19.2754 17.3389 20.0025 16.8798 20.9043 16.5279C21.806 16.176 22.8052 16 23.9017 16C25.6817 16 27.1427 16.5231 28.2846 17.5677C29.4265 18.6123 29.9974 19.844 29.9974 21.2629C29.9974 23.0866 29.5138 24.5935 28.5448 25.782C27.5759 26.9706 26.3249 27.5657 24.7917 27.5657C24.2879 27.5657 23.8144 27.4537 23.3728 27.2298C22.9311 27.0058 22.6205 26.7339 22.4408 26.4139L21.7691 28.9414C21.7137 29.1446 21.6398 29.3493 21.5508 29.5573C21.4618 29.7652 21.3627 29.9652 21.2569 30.1572C21.1511 30.3491 21.0436 30.5299 20.9378 30.7011C20.832 30.8722 20.7246 31.0322 20.6188 31.181C20.513 31.3297 20.4206 31.4561 20.3417 31.5569C20.2628 31.6577 20.1906 31.7456 20.1234 31.8208L20.0227 31.9488C19.9891 31.992 19.9437 32.008 19.8883 31.9968C19.8329 31.9856 19.7993 31.9536 19.7876 31.9008C19.7876 31.8896 19.7792 31.816 19.7624 31.6769C19.7456 31.5377 19.7288 31.3921 19.712 31.237C19.6952 31.0818 19.6784 30.8818 19.6616 30.6371C19.6448 30.3923 19.6398 30.154 19.6448 29.9252C19.6499 29.6965 19.6667 29.4421 19.6952 29.1654C19.7237 28.8886 19.7657 28.6327 19.8211 28.3975C19.9437 27.8968 20.3585 26.2268 21.0638 23.3905C20.9748 23.2194 20.9009 23.0146 20.8455 22.7746C20.7901 22.5347 20.7615 22.3395 20.7615 22.1908L20.7447 21.9508C20.7447 21.2677 20.9261 20.6999 21.2905 20.2471C21.6549 19.7944 22.0932 19.5673 22.6087 19.5673C23.0235 19.5673 23.3442 19.6985 23.5743 19.9592C23.8043 20.22 23.9185 20.5479 23.9185 20.943C23.9185 21.1878 23.8715 21.4901 23.7758 21.8468C23.6801 22.2036 23.5541 22.6147 23.3979 23.0786C23.2418 23.5425 23.1293 23.9184 23.0621 24.2064C22.9496 24.6863 23.0487 25.1022 23.356 25.4541C23.6633 25.806 24.0747 25.982 24.5902 25.982C25.4752 25.982 26.2057 25.5053 26.7816 24.5503C27.3576 23.5953 27.6464 22.4419 27.6464 21.087C27.6464 20.052 27.2938 19.2074 26.5885 18.5515C25.8832 17.8956 24.8975 17.5677 23.633 17.5677C22.2225 17.5677 21.0772 17.9996 20.199 18.8634C19.3207 19.7273 18.8808 20.7622 18.8808 21.9668C18.8808 22.6819 19.094 23.2833 19.5189 23.7744C19.665 23.9344 19.7086 24.1056 19.6532 24.2863C19.6314 24.3391 19.5978 24.4623 19.5525 24.6543C19.5071 24.8462 19.4735 24.9694 19.4517 25.0222C19.4299 25.139 19.3728 25.2174 19.2838 25.2541C19.1948 25.2909 19.094 25.2893 18.9815 25.2462C18.3216 24.9902 17.8262 24.5503 17.4954 23.9264C17.1646 23.3025 17 22.5747 17 21.7429Z" fill="white"/>
</g>
</g>
<defs>
<clipPath id="clip0_1_199">
<rect width="48" height="48" fill="white"/>
</clipPath>
<clipPath id="clip1_1_199">
<rect width="48" height="48" fill="white"/>
</clipPath>
<clipPath id="clip2_1_199">
<rect width="13" height="16" fill="white" transform="translate(17 16)"/>
</clipPath>
</defs>
</svg>
