<svg width="48" height="48" viewBox="0 0 48 48" fill="none" xmlns="http://www.w3.org/2000/svg">
<g clip-path="url(#clip0_1_194)">
<g clip-path="url(#clip1_1_194)">
<rect opacity="0.1" width="48" height="48" rx="24" fill="#6D5DD3"/>
</g>
<path d="M30.0508 23.9062C30.5977 23.4961 31.0898 23.0039 31.4727 22.4297C30.9805 22.6484 30.4062 22.8125 29.832 22.8672C30.4336 22.5117 30.8711 21.9648 31.0898 21.2812C30.543 21.6094 29.9141 21.8555 29.2852 21.9922C28.7383 21.418 28 21.0898 27.1797 21.0898C25.5938 21.0898 24.3086 22.375 24.3086 23.9609C24.3086 24.1797 24.3359 24.3984 24.3906 24.6172C22.0117 24.4805 19.8789 23.332 18.457 21.6094C18.2109 22.0195 18.0742 22.5117 18.0742 23.0586C18.0742 24.043 18.5664 24.918 19.3594 25.4375C18.8945 25.4102 18.4297 25.3008 18.0469 25.082V25.1094C18.0469 26.5039 19.0312 27.6523 20.3438 27.9258C20.125 27.9805 19.8516 28.0352 19.6055 28.0352C19.4141 28.0352 19.25 28.0078 19.0586 27.9805C19.4141 29.1289 20.4805 29.9492 21.7383 29.9766C20.7539 30.7422 19.5234 31.207 18.1836 31.207C17.9375 31.207 17.7188 31.1797 17.5 31.1523C18.7578 31.9727 20.2617 32.4375 21.9023 32.4375C27.1797 32.4375 30.0508 28.0898 30.0508 24.2891C30.0508 24.1523 30.0508 24.043 30.0508 23.9062Z" fill="white"/>
</g>
<defs>
<clipPath id="clip0_1_194">
<rect width="48" height="48" fill="white"/>
</clipPath>
<clipPath id="clip1_1_194">
<rect width="48" height="48" fill="white"/>
</clipPath>
</defs>
</svg>
